<svg width="92" height="27" viewBox="0 0 92 27" fill="none" xmlns="http://www.w3.org/2000/svg">
<g id="Group">
<path id="Vector" fill-rule="evenodd" clip-rule="evenodd" d="M4.46925e-07 13.8978C4.42578e-07 13.5 0.158013 13.1185 0.439279 12.8373C0.720544 12.556 1.10202 12.398 1.49979 12.398L86.5284 12.0002L77.0887 2.56352C76.8071 2.2819 76.6489 1.89994 76.6489 1.50167C76.6489 1.1034 76.8071 0.721441 77.0887 0.439819C77.3703 0.158199 77.7523 -1.5502e-05 78.1505 -1.55716e-05C78.5488 -1.56413e-05 78.9308 0.158199 79.2124 0.439819L91.2107 12.4381C91.3504 12.5774 91.4612 12.743 91.5368 12.9252C91.6124 13.1074 91.6513 13.3027 91.6513 13.5C91.6513 13.6973 91.6124 13.8926 91.5368 14.0748C91.4612 14.257 91.3504 14.4225 91.2107 14.5618L79.2124 26.5602C78.9308 26.8418 78.5488 27 78.1505 27C77.7523 27 77.3703 26.8418 77.0887 26.5602C76.8071 26.2785 76.6489 25.8966 76.6489 25.4983C76.6489 25.1 76.8071 24.7181 77.0887 24.4365L86.5284 14.9998L1.49979 15.3976C1.10202 15.3976 0.720544 15.2395 0.439279 14.9583C0.158013 14.677 4.51271e-07 14.2955 4.46925e-07 13.8978Z" fill="black"/>
</g>
</svg>
